<svg id="Capa_1" xmlns="http://www.w3.org/2000/svg" xmlns:xlink="http://www.w3.org/1999/xlink" viewBox="0 0 412.72 412.72" style="enable-background:new 0 0 412.72 412.72"><g><g><path d="M404.72 82.944c-.027.0-.054.0-.08.0h0-27.12v-9.28c.146-3.673-2.23-6.974-5.76-8-18.828-4.934-38.216-7.408-57.68-7.36-32 0-75.6 7.2-107.84 40-32-33.12-75.92-40-107.84-40-19.464-.048-38.852 2.426-57.68 7.36-3.53 1.026-5.906 4.327-5.76 8v9.2H8c-4.418.0-8 3.582-8 8v255.52c0 4.418 3.582 8 8 8 1.374-.004 2.724-.362 3.92-1.04.8-.4 80.8-44.16 192.48-16h1.2.72c.638.077 1.282.077 1.92.0 112-28.4 192 15.28 192.48 16 2.475 1.429 5.525 1.429 8 0 2.46-1.42 3.983-4.039 4-6.88V90.944C412.72 86.526 409.139 82.944 404.72 82.944zM16 333.664V98.944h19.12v200.64c-.05 4.418 3.491 8.04 7.909 8.09.432.005.864-.025 1.291-.09 16.55-2.527 33.259-3.864 50-4 23.19-.402 46.283 3.086 68.32 10.32C112.875 307.886 62.397 314.688 16 333.664zm78.32-46c-14.551.033-29.085.968-43.52 2.8V79.984c15.576-3.47 31.482-5.241 47.44-5.28 29.92.0 71.2 6.88 99.84 39.2l.24 199.28C181.68 302.304 149.2 287.664 94.32 287.664zm120-173.76c28.64-32 69.92-39.2 99.84-39.2 15.957.047 31.863 1.817 47.44 5.28v210.48c-14.354-1.849-28.808-2.811-43.28-2.88-54.56.0-87.12 14.64-104 25.52v-199.2zm182.32 219.76c-46.496-19.028-97.09-25.831-146.96-19.76 22.141-7.26 45.344-10.749 68.64-10.32 16.846.094 33.663 1.404 50.32 3.92 4.368.663 8.447-2.341 9.11-6.709.065-.427.095-.859.09-1.291V98.944h19.12L396.64 333.664z"/></g></g><g/><g/><g/><g/><g/><g/><g/><g/><g/><g/><g/><g/><g/><g/><g/></svg>